<svg id="svg" version="1.1" viewBox="0 0 300 300" width="300" height="300" xmlns="http://www.w3.org/2000/svg"><svg xmlns="http://www.w3.org/2000/svg"><defs><clipPath id="clip-1"><rect x="0" y="0" transform="scale(0.14648,0.14648)" width="2048" height="2048" fill="none"/></clipPath></defs><g clip-path="url(#clip-1)" fill="none" fill-rule="nonzero" stroke="none" stroke-width="1" stroke-linecap="butt" stroke-linejoin="miter" stroke-miterlimit="10" stroke-dasharray="" stroke-dashoffset="0" font-family="none" font-weight="none" font-size="none" text-anchor="none" style="mix-blend-mode: normal"><path d="M141.69771,0h15.42876c1.78271,0.6296 4.39453,0.39634 6.30176,0.60892c1.56299,0.17422 3.11865,0.3451 4.68018,0.54526c6.90088,0.83077 13.73584,2.13946 20.45508,3.91661c40.72852,10.88326 75.00586,38.39054 94.44873,75.79723c7.51904,14.50635 12.66064,30.12568 15.22852,46.26182c0.56396,3.69609 0.97412,7.39409 1.34326,11.11348c0.1333,1.33799 0.08203,4.53325 0.41602,5.65181v12.82266c-0.3999,1.53662 -0.22852,3.51563 -0.34277,5.12402c-0.51416,7.24805 -1.6333,14.8623 -3.31787,21.91846c-8.94727,38.64551 -32.80371,72.19189 -66.37207,93.32666c-16.91602,10.62744 -35.78027,17.77588 -55.48975,21.0293c-3.86719,0.65039 -7.75781,1.14844 -11.66455,1.49268c-1.3125,0.11426 -4.62305,0.07178 -5.69678,0.39111h-14.12197c-0.95493,-0.27246 -4.21816,-0.29443 -5.41611,-0.4043c-4.19341,-0.35889 -8.37041,-0.89062 -12.52046,-1.59082c-19.17437,-3.22852 -37.53721,-10.15723 -54.06475,-20.40088c-32.37319,-19.64062 -57.02889,-53.48291 -66.35432,-90.12598c-1.7544,-6.84668 -3.03792,-13.80615 -3.84157,-20.82861c-0.31146,-2.52686 -0.28194,-6.89795 -0.7495,-8.75244l-0.04753,-0.18164v-14.42622c0.62303,-1.93477 0.3437,-4.44771 0.5799,-6.43608c0.31521,-2.65342 0.53718,-5.5125 0.93122,-8.12827c2.00599,-13.55947 5.82674,-26.78745 11.35947,-39.32827c18.12507,-41.1104 53.76267,-71.90156 97.06857,-83.86811c8.54238,-2.3959 17.19316,-3.93858 25.99863,-4.82079c1.40684,-0.14094 4.64648,-0.1811 5.75991,-0.70759z" fill="#e81008"/><path d="M118.14478,60.28315c7.03257,-0.25444 14.20693,-0.0252 21.25532,-0.15615c2.44658,-0.04541 5.06309,-0.05508 7.49883,0.08057c1.396,1.40273 2.84326,4.22183 3.97852,5.98008c4.45459,6.90762 8.40234,14.14556 12.66064,21.1771l20.44775,33.41191c1.25244,2.05137 8.32617,13.26123 8.34814,14.32896c0.24756,12.03208 0.27686,31.76353 0.12012,43.30796l-1.95264,-2.61475c-0.14648,2.31006 -0.104,4.28906 -1.07666,6.50098c-3.26807,7.42383 -12.16992,10.32861 -19.41943,7.03564c-1.46924,-0.6665 -2.97803,-1.8208 -4.28174,-2.78174c0.38086,1.4165 1.48242,2.84912 2.18115,4.12646c1.59375,2.91211 4.44287,6.90381 5.68506,9.88623l-34.53809,-0.01025c-6.00483,-0.00146 -12.57861,0.12451 -18.54111,-0.04248c-1.004,1.40625 -1.89814,2.88135 -2.81865,4.3418c-5.77163,9.15967 -11.29819,18.47607 -16.91982,27.72803c-0.49365,0.81299 -1.08442,1.74902 -1.64634,2.50928c-9.52163,0.15088 -19.04458,0.19775 -28.56724,0.14063l-8.5563,0.00146c-1.31455,0 -3.54902,0.05713 -4.79648,-0.08057c-3.65244,-0.1377 -8.16812,0.12012 -12.02725,0.06592c-0.13857,-2.29248 0.18911,-4.66113 0.0627,-6.89209c-0.44722,-7.8999 0.06782,-15.8877 -0.05845,-23.76416c-0.04746,-0.19629 -0.09272,-0.39404 -0.12114,-0.59473c-0.27656,-1.94824 -0.30059,-19.06787 0.13667,-20.33936c0.73022,-2.12549 2.73604,-4.82812 3.92607,-6.82324l8.44746,-14.2749c11.89834,-20.33672 23.96396,-40.57559 36.19585,-60.71411c5.25146,-8.8144 10.43555,-18.05742 15.57495,-26.97319c1.65879,-2.86582 3.33955,-5.71875 5.04229,-8.55864c1.14243,-1.91675 2.45464,-4.23032 3.75981,-6.00264z" fill="#f5f1e7"/><path d="M118.14478,60.28315c7.03257,-0.25444 14.20693,-0.0252 21.25532,-0.15615c2.44658,-0.04541 5.06309,-0.05508 7.49883,0.08057c1.396,1.40273 2.84326,4.22183 3.97852,5.98008c4.45459,6.90762 8.40234,14.14556 12.66064,21.1771l20.44775,33.41191c1.25244,2.05137 8.32617,13.26123 8.34814,14.32896c0.24756,12.03208 0.27686,31.76353 0.12012,43.30796l-1.95264,-2.61475c-0.46729,-1.08838 -1.87207,-3.04395 -2.57227,-4.07959c-1.25537,-1.84863 -2.48291,-3.71484 -3.68408,-5.59863l-15.26367,-24.36094l-28.10186,-44.65591c-1.2668,-2.05151 -2.58604,-4.81099 -3.95376,-6.68994c-4.51758,-6.20654 -7.53018,-13.24438 -12.23657,-19.25405c-3.96709,5.59937 -6.63823,10.86621 -10.04077,16.79678l-13.4896,23.09751l-43.49399,73.3522c-1.85068,3.11426 -3.7752,6.18457 -5.77192,9.20801c-1.40669,2.14014 -6.11602,8.99854 -6.71016,10.94971c-0.04746,-0.19629 -0.09272,-0.39404 -0.12114,-0.59473c-0.27656,-1.94824 -0.30059,-19.06787 0.13667,-20.33936c0.73022,-2.12549 2.73604,-4.82812 3.92607,-6.82324l8.44746,-14.2749c11.89834,-20.33672 23.96396,-40.57559 36.19585,-60.71411c5.25146,-8.8144 10.43555,-18.05742 15.57495,-26.97319c1.65879,-2.86582 3.33955,-5.71875 5.04229,-8.55864c1.14243,-1.91675 2.45464,-4.23032 3.75981,-6.00264z" fill="#000000"/><path d="M99.98672,163.72412c2.12798,-4.33594 5.20708,-8.25293 7.56636,-12.27246c2.97026,-5.0606 5.80869,-10.33843 8.75376,-15.44033c2.87227,-4.87983 5.78789,-9.73389 8.74673,-14.56157c2.54106,3.92593 4.67285,8.13032 7.11709,12.09521c2.30303,3.73579 4.97241,7.33638 7.32905,11.06353c2.78027,4.39688 5.32178,9.01553 8.05254,13.42324c2.74072,4.42383 6.28125,8.93408 9.11572,13.33008c2.1958,3.40283 4.2085,7.37988 6.36914,10.83252c0.87744,1.40186 1.68604,3.0542 2.68652,4.35938c0.38086,1.4165 1.48242,2.84912 2.18115,4.12646c1.59375,2.91211 4.44287,6.90381 5.68506,9.88623l-34.53809,-0.01025c-6.00483,-0.00146 -12.57861,0.12451 -18.54111,-0.04248c-1.004,1.40625 -1.89814,2.88135 -2.81865,4.3418c-5.77163,9.15967 -11.29819,18.47607 -16.91982,27.72803c-0.49365,0.81299 -1.08442,1.74902 -1.64634,2.50928c-9.52163,0.15088 -19.04458,0.19775 -28.56724,0.14063l-8.5563,0.00146c-1.31455,0 -3.54902,0.05713 -4.79648,-0.08057l27.63662,-46.04883c1.5564,-0.19482 3.80815,-0.13916 5.42842,-0.14062l8.10894,0.00146l27.39639,0.02344c4.90444,-8.27637 10.34136,-16.70361 15.41572,-24.89355c-2.89014,-0.2666 -7.60488,-0.09814 -10.67153,-0.09229l-20.96279,0.00732c-2.33892,-0.02051 -7.52637,0.00732 -9.57085,-0.28711z" fill="#000000"/><path d="M202.875,59.86421l21.38379,-0.00132c5.37451,0.04995 10.75049,0.05977 16.125,0.02959l-0.01172,81.95845l0.01758,22.35659c0.00586,8.25732 0.39844,15.16699 -1.40332,23.3042c-2.42871,11.33057 -7.91309,21.7793 -15.8584,30.2168c-7.89258,8.32178 -18.18164,13.97754 -29.43896,16.18359c-4.82666,0.9126 -9.17578,1.13232 -14.0918,1.30957c-4.31982,0.0293 -8.63965,0.01318 -12.95801,-0.04834c-2.37598,-0.04248 -4.55566,-0.00293 -6.91846,-0.27979c-0.85547,-1.20557 -1.83838,-2.75391 -2.6001,-4.03857c-4.82812,-8.13721 -10.56152,-16.0415 -15.3479,-24.15527c6.09888,-0.0498 12.19702,-0.06445 18.29517,-0.04395c3.61084,-0.00879 8.08887,0.12451 11.63086,-0.20215c14.01123,-1.29492 27.39404,-13.61426 30.47021,-27.24316c1.28027,-5.67334 0.87012,-12.31934 0.85254,-18.15088l-0.00732,-19.53252c-0.04102,-27.18809 -0.36621,-54.49087 -0.13916,-81.66284z" fill="#000000"/></g></svg></svg>